<svg width="41" height="41" viewBox="0 0 41 41" fill="none" xmlns="http://www.w3.org/2000/svg">
<g id="220-vietnam 1">
<g clip-path="url(#clip0_213_30090)">
<path id="Vector" d="M40.5 0.5H0.5V40.5H40.5V0.5Z" fill="#FF4B55"/>
<path id="Vector_2" d="M20.8566 11.9555L22.9007 18.0843L29.3613 18.1344C29.7225 18.1372 29.8723 18.5982 29.5817 18.8128L24.3845 22.6507L26.3332 28.8105C26.4422 29.1549 26.05 29.4398 25.7561 29.2298L20.5 25.473L15.2439 29.2298C14.95 29.4399 14.5578 29.155 14.6668 28.8105L16.6155 22.6508L11.4183 18.8129C11.1277 18.5983 11.2775 18.1373 11.6388 18.1345L18.0993 18.0844L20.1434 11.9555C20.2577 11.6127 20.7423 11.6127 20.8566 11.9555Z" fill="#FFE15A"/>
</g>
</g>
<defs>
<clipPath id="clip0_213_30090">
<rect x="0.5" y="0.5" width="40" height="40" rx="5" fill="white"/>
</clipPath>
</defs>
</svg>
