<svg width="20" height="21" viewBox="0 0 20 21" fill="none" xmlns="http://www.w3.org/2000/svg">
<path d="M16.8 20H3.2C2 20 1 19 1 17.8V4.60003C1 3.40003 2 2.40002 3.2 2.40002H16.7C17.9 2.40002 18.9 3.40003 18.9 4.60003V17.8C19 19 18 20 16.8 20Z" stroke="#929292" stroke-width="1.2" stroke-miterlimit="10" stroke-linecap="round" stroke-linejoin="round"/>
<path d="M19 7H1" stroke="#929292" stroke-width="1.2" stroke-miterlimit="10" stroke-linecap="round" stroke-linejoin="round"/>
<path d="M5 1V3.7" stroke="#929292" stroke-width="1.2" stroke-miterlimit="10" stroke-linecap="round" stroke-linejoin="round"/>
<path d="M15 1V3.7" stroke="#929292" stroke-width="1.2" stroke-miterlimit="10" stroke-linecap="round" stroke-linejoin="round"/>
<path d="M5.0999 12.4C5.76264 12.4 6.2999 11.8627 6.2999 11.2C6.2999 10.5373 5.76264 10 5.0999 10C4.43716 10 3.8999 10.5373 3.8999 11.2C3.8999 11.8627 4.43716 12.4 5.0999 12.4Z" fill="#929292"/>
<path d="M9.9998 12.4C10.6625 12.4 11.1998 11.8627 11.1998 11.2C11.1998 10.5373 10.6625 10 9.9998 10C9.33706 10 8.7998 10.5373 8.7998 11.2C8.7998 11.8627 9.33706 12.4 9.9998 12.4Z" fill="#929292"/>
<path d="M14.8999 12.4C15.5627 12.4 16.0999 11.8627 16.0999 11.2C16.0999 10.5373 15.5627 10 14.8999 10C14.2372 10 13.7 10.5373 13.7 11.2C13.7 11.8627 14.2372 12.4 14.8999 12.4Z" fill="#929292"/>
<path d="M5.0999 16.5C5.76264 16.5 6.2999 15.9627 6.2999 15.3C6.2999 14.6372 5.76264 14.1 5.0999 14.1C4.43716 14.1 3.8999 14.6372 3.8999 15.3C3.8999 15.9627 4.43716 16.5 5.0999 16.5Z" fill="#929292"/>
<path d="M9.9998 16.5C10.6625 16.5 11.1998 15.9627 11.1998 15.3C11.1998 14.6372 10.6625 14.1 9.9998 14.1C9.33706 14.1 8.7998 14.6372 8.7998 15.3C8.7998 15.9627 9.33706 16.5 9.9998 16.5Z" fill="#929292"/>
<path d="M14.8999 16.5C15.5627 16.5 16.0999 15.9627 16.0999 15.3C16.0999 14.6372 15.5627 14.1 14.8999 14.1C14.2372 14.1 13.7 14.6372 13.7 15.3C13.7 15.9627 14.2372 16.5 14.8999 16.5Z" fill="#929292"/>
</svg>
