<svg width="12" height="12" viewBox="0 0 12 12" fill="none" xmlns="http://www.w3.org/2000/svg">
<g id="download">
<g id="icon">
<path d="M5.625 6.79289L4.97855 6.14645C4.78329 5.95118 4.46671 5.95118 4.27145 6.14645C4.07618 6.34171 4.07618 6.65829 4.27145 6.85355L5.94822 8.53033C6.04585 8.62796 6.20415 8.62796 6.30178 8.53033L7.97855 6.85355C8.17382 6.65829 8.17382 6.34171 7.97855 6.14645C7.78329 5.95118 7.46671 5.95118 7.27145 6.14645L6.625 6.79289V2C6.625 1.72386 6.40114 1.5 6.125 1.5C5.84886 1.5 5.625 1.72386 5.625 2V6.79289Z" fill="white"/>
<path d="M2 7C2.27614 7 2.5 7.22386 2.5 7.5V8.5C2.5 9.05228 2.94772 9.5 3.5 9.5H8.5C9.05228 9.5 9.5 9.05228 9.5 8.5V7.5C9.5 7.22386 9.72386 7 10 7C10.2761 7 10.5 7.22386 10.5 7.5V8.5C10.5 9.60457 9.60457 10.5 8.5 10.5H3.5C2.39543 10.5 1.5 9.60457 1.5 8.5V7.5C1.5 7.22386 1.72386 7 2 7Z" fill="white"/>
</g>
</g>
</svg>
