<svg width="51" height="50" viewBox="0 0 51 50" fill="none" xmlns="http://www.w3.org/2000/svg">
<path d="M24.8923 0.0493986C25.3101 0.016517 25.7299 0.0165171 26.1477 0.0493987L28.8032 0.258392C29.221 0.291274 29.6356 0.356936 30.0431 0.454772L32.6332 1.07661C33.0407 1.17444 33.4399 1.30415 33.8271 1.46453L36.2881 2.48389C36.6753 2.64427 37.0493 2.83483 37.4066 3.05381L39.6778 4.4456C40.0351 4.66458 40.3747 4.9113 40.6934 5.18348L42.7189 6.91343C43.0376 7.18561 43.3344 7.48241 43.6066 7.80109L45.3365 9.8266C45.6087 10.1453 45.8554 10.4849 46.0744 10.8422L47.4662 13.1134C47.6852 13.4707 47.8757 13.8447 48.0361 14.2319L49.0555 16.6929C49.2159 17.0801 49.3456 17.4793 49.4434 17.8868L50.0652 20.4769C50.1631 20.8844 50.2287 21.299 50.2616 21.7168L50.4706 24.3723C50.5035 24.7901 50.5035 25.2099 50.4706 25.6277L50.2616 28.2832C50.2287 28.701 50.1631 29.1156 50.0652 29.5231L49.4434 32.1132C49.3456 32.5207 49.2159 32.9199 49.0555 33.3071L48.0361 35.7681C47.8757 36.1553 47.6852 36.5293 47.4662 36.8866L46.0744 39.1578C45.8554 39.5151 45.6087 39.8547 45.3365 40.1734L43.6066 42.1989C43.3344 42.5176 43.0376 42.8144 42.7189 43.0866L40.6934 44.8165C40.3747 45.0887 40.0351 45.3354 39.6778 45.5544L37.4066 46.9462C37.0493 47.1652 36.6753 47.3557 36.2881 47.5161L33.8271 48.5355C33.4399 48.6959 33.0407 48.8256 32.6332 48.9234L30.0431 49.5452C29.6356 49.6431 29.221 49.7087 28.8032 49.7416L26.1477 49.9506C25.7299 49.9835 25.3101 49.9835 24.8923 49.9506L22.2368 49.7416C21.819 49.7087 21.4044 49.6431 20.9969 49.5452L18.4068 48.9234C17.9993 48.8256 17.6001 48.6959 17.2129 48.5355L14.7519 47.5161C14.3647 47.3557 13.9907 47.1652 13.6334 46.9462L11.3622 45.5544C11.0049 45.3354 10.6653 45.0887 10.3466 44.8165L8.32109 43.0866C8.00241 42.8144 7.70561 42.5176 7.43343 42.1989L5.70348 40.1734C5.4313 39.8547 5.18458 39.5151 4.9656 39.1578L3.57381 36.8866C3.35484 36.5293 3.16428 36.1553 3.0039 35.7681L1.98453 33.3071C1.82415 32.9199 1.69445 32.5207 1.59661 32.1132L0.974776 29.5231C0.87694 29.1156 0.811278 28.701 0.778396 28.2832L0.569403 25.6277C0.536521 25.2099 0.536521 24.7901 0.569403 24.3723L0.778396 21.7168C0.811278 21.299 0.87694 20.8844 0.974776 20.4769L1.59661 17.8868C1.69445 17.4793 1.82415 17.0801 1.98453 16.6929L3.0039 14.2319C3.16428 13.8447 3.35484 13.4707 3.57381 13.1134L4.96561 10.8422C5.18458 10.4849 5.4313 10.1453 5.70348 9.82661L7.43343 7.80109C7.70561 7.48241 8.00241 7.18561 8.3211 6.91343L10.3466 5.18348C10.6653 4.9113 11.0049 4.66458 11.3622 4.4456L13.6334 3.05381C13.9907 2.83483 14.3647 2.64427 14.7519 2.48389L17.2129 1.46453C17.6001 1.30415 17.9993 1.17444 18.4068 1.07661L20.9969 0.454771C21.4044 0.356936 21.819 0.291274 22.2368 0.258392L24.8923 0.0493986Z" fill="url(#paint0_linear_1065_963)"/>
<path d="M35 24.6L25.7 15.3C25.3 14.9 24.7 14.9 24.3 15.3L15 24.6" fill="white"/>
<path d="M35 24.6L25.7 15.3C25.3 14.9 24.7 14.9 24.3 15.3L15 24.6" stroke="white" stroke-width="1.5" stroke-miterlimit="10" stroke-linecap="round" stroke-linejoin="round"/>
<path d="M17.2998 22.3V30.6C17.2998 31.9 18.3998 33 19.7998 33H22.9998H26.9998H29.7998C31.1998 33 32.2998 31.9 32.2998 30.6V21.9" fill="white"/>
<path d="M17.2998 22.3V30.6C17.2998 31.9 18.3998 33 19.7998 33H22.9998H26.9998H29.7998C31.1998 33 32.2998 31.9 32.2998 30.6V21.9" stroke="white" stroke-width="1.5" stroke-miterlimit="10" stroke-linecap="round" stroke-linejoin="round"/>
<path d="M27 27H23V33H27V27Z" fill="#FF6110" stroke="#FF6110" stroke-width="1.5" stroke-miterlimit="10" stroke-linecap="round" stroke-linejoin="round"/>
<defs>
<linearGradient id="paint0_linear_1065_963" x1="0.520004" y1="24.9994" x2="50.5122" y2="24.9994" gradientUnits="userSpaceOnUse">
<stop stop-color="#FF8E33"/>
<stop offset="1" stop-color="#FF4D00"/>
</linearGradient>
</defs>
</svg>
