<svg width="16" height="16" viewBox="0 0 16 16" fill="none" xmlns="http://www.w3.org/2000/svg">
<path fill-rule="evenodd" clip-rule="evenodd" d="M7.85701 0C6.8927 0 6.11098 0.781725 6.11098 1.74603C6.11098 2.71034 6.8927 3.49206 7.85701 3.49206C8.82132 3.49206 9.60304 2.71034 9.60304 1.74603C9.60304 0.781725 8.82132 0 7.85701 0ZM6.71422 4.57143C5.92524 4.57143 5.28564 5.21102 5.28564 6C5.28564 6.69113 5.77643 7.26763 6.4285 7.39999V13.1714C5.77643 13.3038 5.28564 13.8803 5.28564 14.5714C5.28564 15.3604 5.92524 16 6.71422 16H8.14279H9.57136C10.3603 16 10.9999 15.3604 10.9999 14.5714C10.9999 13.8803 10.5091 13.3038 9.85707 13.1714V6.28572C9.85707 6.23538 9.8549 6.18555 9.85065 6.13631C9.8549 6.09145 9.85707 6.04598 9.85707 6C9.85707 5.21102 9.21748 4.57143 8.4285 4.57143H8.14279H6.71422Z" fill="#6B90EF"/>
</svg>
