<svg width="16" height="16" viewBox="0 0 16 16" fill="none" xmlns="http://www.w3.org/2000/svg">
    <path d="M3.625 3.3125C3.625 3.67708 3.4974 3.98698 3.24219 4.24219C2.98698 4.4974 2.67708 4.625 2.3125 4.625C1.94792 4.625 1.63802 4.4974 1.38281 4.24219C1.1276 3.98698 1 3.67708 1 3.3125C1 2.94792 1.1276 2.63802 1.38281 2.38281C1.63802 2.1276 1.94792 2 2.3125 2C2.67708 2 2.98698 2.1276 3.24219 2.38281C3.4974 2.63802 3.625 2.94792 3.625 3.3125ZM2.3125 6.375C1.94792 6.375 1.63802 6.5026 1.38281 6.75781C1.1276 7.01302 1 7.32292 1 7.6875C1 8.05208 1.1276 8.36198 1.38281 8.61719C1.63802 8.8724 1.94792 9 2.3125 9C2.67708 9 2.98698 8.8724 3.24219 8.61719C3.4974 8.36198 3.625 8.05208 3.625 7.6875C3.625 7.32292 3.4974 7.01302 3.24219 6.75781C2.98698 6.5026 2.67708 6.375 2.3125 6.375ZM2.3125 10.75C1.94792 10.75 1.63802 10.8776 1.38281 11.1328C1.1276 11.388 1 11.6979 1 12.0625C1 12.4271 1.1276 12.737 1.38281 12.9922C1.63802 13.2474 1.94792 13.375 2.3125 13.375C2.67708 13.375 2.98698 13.2474 3.24219 12.9922C3.4974 12.737 3.625 12.4271 3.625 12.0625C3.625 11.6979 3.4974 11.388 3.24219 11.1328C2.98698 10.8776 2.67708 10.75 2.3125 10.75ZM4.9375 4.29688H14.5625C14.6901 4.29688 14.7904 4.26042 14.8633 4.1875C14.9544 4.09635 15 3.98698 15 3.85938V2.76563C15 2.63802 14.9544 2.53776 14.8633 2.46484C14.7904 2.3737 14.6901 2.32813 14.5625 2.32813H4.9375C4.8099 2.32813 4.70052 2.3737 4.60938 2.46484C4.53646 2.53776 4.5 2.63802 4.5 2.76563V3.85938C4.5 3.98698 4.53646 4.09635 4.60938 4.1875C4.70052 4.26042 4.8099 4.29688 4.9375 4.29688ZM4.9375 8.67188H14.5625C14.6901 8.67188 14.7904 8.63542 14.8633 8.5625C14.9544 8.47135 15 8.36198 15 8.23438V7.14063C15 7.01302 14.9544 6.91276 14.8633 6.83984C14.7904 6.7487 14.6901 6.70313 14.5625 6.70313H4.9375C4.8099 6.70313 4.70052 6.7487 4.60938 6.83984C4.53646 6.91276 4.5 7.01302 4.5 7.14063V8.23438C4.5 8.36198 4.53646 8.47135 4.60938 8.5625C4.70052 8.63542 4.8099 8.67188 4.9375 8.67188ZM4.9375 13.0469H14.5625C14.6901 13.0469 14.7904 13.0104 14.8633 12.9375C14.9544 12.8464 15 12.737 15 12.6094V11.5156C15 11.388 14.9544 11.2878 14.8633 11.2148C14.7904 11.1237 14.6901 11.0781 14.5625 11.0781H4.9375C4.8099 11.0781 4.70052 11.1237 4.60938 11.2148C4.53646 11.2878 4.5 11.388 4.5 11.5156V12.6094C4.5 12.737 4.53646 12.8464 4.60938 12.9375C4.70052 13.0104 4.8099 13.0469 4.9375 13.0469Z" fill="#707070"/>
</svg>
