<svg width="16" height="17" viewBox="0 0 16 17" fill="none" xmlns="http://www.w3.org/2000/svg">
  <path
    d="M8 0.644531C6.55914 0.644531 5.22581 1.01012 4 1.74131C2.77419 2.45098 1.7957 3.41872 1.06452 4.64453C0.354839 5.87034 0 7.20367 0 8.64453C0 10.0854 0.354839 11.4187 1.06452 12.6445C1.7957 13.8703 2.77419 14.8381 4 15.5478C5.22581 16.2789 6.55914 16.6445 8 16.6445C9.44086 16.6445 10.7742 16.2789 12 15.5478C13.2258 14.8381 14.1935 13.8703 14.9032 12.6445C15.6344 11.4187 16 10.0854 16 8.64453C16 7.20367 15.6344 5.87034 14.9032 4.64453C14.1935 3.41872 13.2258 2.45098 12 1.74131C10.7742 1.01012 9.44086 0.644531 8 0.644531ZM8 4.19292C8.36559 4.19292 8.67742 4.3327 8.93548 4.61227C9.21505 4.87034 9.35484 5.18217 9.35484 5.54776C9.35484 5.91335 9.21505 6.23593 8.93548 6.5155C8.67742 6.77356 8.36559 6.9026 8 6.9026C7.63441 6.9026 7.31183 6.77356 7.03226 6.5155C6.77419 6.23593 6.64516 5.91335 6.64516 5.54776C6.64516 5.18217 6.77419 4.87034 7.03226 4.61227C7.31183 4.3327 7.63441 4.19292 8 4.19292ZM9.80645 12.3865C9.80645 12.494 9.76344 12.5908 9.67742 12.6768C9.6129 12.7413 9.52688 12.7736 9.41935 12.7736H6.58065C6.47312 12.7736 6.37634 12.7413 6.29032 12.6768C6.22581 12.5908 6.19355 12.494 6.19355 12.3865V11.6123C6.19355 11.5047 6.22581 11.4187 6.29032 11.3542C6.37634 11.2682 6.47312 11.2252 6.58065 11.2252H6.96774V9.16066H6.58065C6.47312 9.16066 6.37634 9.1284 6.29032 9.06389C6.22581 8.97786 6.19355 8.88109 6.19355 8.77356V7.99937C6.19355 7.89184 6.22581 7.80582 6.29032 7.74131C6.37634 7.65528 6.47312 7.61227 6.58065 7.61227H8.64516C8.75269 7.61227 8.83871 7.65528 8.90323 7.74131C8.98925 7.80582 9.03226 7.89184 9.03226 7.99937V11.2252H9.41935C9.52688 11.2252 9.6129 11.2682 9.67742 11.3542C9.76344 11.4187 9.80645 11.5047 9.80645 11.6123V12.3865Z"
    fill="#F29F24"/>
</svg>
