<svg width="72" height="72" viewBox="0 0 72 72" fill="none" xmlns="http://www.w3.org/2000/svg">
<g opacity="0.5">
<rect x="9" y="9.00003" width="55" height="9" rx="4.5" fill="#FFE8C6"/>
<rect x="7" y="54" width="43" height="9" rx="4.5" fill="#FFE8C6"/>
<path d="M10.3115 31.5001C10.3115 29.0148 12.3262 27.0001 14.8115 27.0001H60.5C62.9853 27.0001 65 29.0148 65 31.5001C65 33.9853 62.9853 36.0001 60.5 36.0001H14.8115C12.3262 36.0001 10.3115 33.9853 10.3115 31.5001Z" fill="#FFE8C6"/>
<path fill-rule="evenodd" clip-rule="evenodd" d="M6.5 36C4.01472 36 2 38.0147 2 40.5C2 42.9853 4.01472 45 6.5 45H52.5C52.8437 45 53.1784 44.9615 53.5 44.8885C51.496 44.4338 50 42.6416 50 40.5C50 38.3584 51.496 36.5662 53.5 36.1115C53.1784 36.0385 52.8437 36 52.5 36H6.5Z" fill="#FFE8C6"/>
<path fill-rule="evenodd" clip-rule="evenodd" d="M18.0002 22.5C18.0002 20.1375 16.1797 18.2003 13.865 18.0146C13.9854 18.0049 14.1072 18 14.2301 18H51.7874C51.7923 18 51.7971 18 51.8019 18H46.5C44.0147 18 42 20.0147 42 22.5C42 24.9805 44.0069 26.9922 46.4855 27H14.2301C14.1073 27 13.9856 26.9951 13.8653 26.9854C16.1798 26.7996 18.0002 24.8624 18.0002 22.5Z" fill="#FFE8C6"/>
<path fill-rule="evenodd" clip-rule="evenodd" d="M18 53.9725C18.1642 53.9907 18.331 54 18.5 54H63.041C65.5263 54 67.541 51.9853 67.541 49.5C67.541 47.0147 65.5263 45 63.041 45H18.5C18.331 45 18.1642 45.0093 18 45.0275C20.25 45.2762 22 47.1837 22 49.5C22 51.8163 20.25 53.7238 18 53.9725Z" fill="#FFE8C6"/>
</g>
<circle cx="38" cy="12" r="1.5" stroke="#FFCF87"/>
<circle cx="17" cy="50" r="1.5" stroke="#FFCF87"/>
<path fill-rule="evenodd" clip-rule="evenodd" d="M63 21C62.7239 21 62.5 21.2239 62.5 21.5V23.5H60.5C60.2239 23.5 60 23.7239 60 24C60 24.2761 60.2239 24.5 60.5 24.5H62.5V26.5C62.5 26.7761 62.7239 27 63 27C63.2761 27 63.5 26.7761 63.5 26.5V24.5H65.5C65.7761 24.5 66 24.2761 66 24C66 23.7239 65.7761 23.5 65.5 23.5H63.5V21.5C63.5 21.2239 63.2761 21 63 21Z" fill="#FFCF87"/>
<path fill-rule="evenodd" clip-rule="evenodd" d="M55.9857 48.9632C55.7904 48.7679 55.4738 48.7679 55.2785 48.9632L53.9986 50.2431L52.7426 48.987C52.5473 48.7917 52.2307 48.7917 52.0355 48.987C51.8402 49.1823 51.8402 49.4989 52.0355 49.6941L53.2915 50.9502L51.9632 52.2786C51.7679 52.4738 51.7679 52.7904 51.9632 52.9857C52.1584 53.1809 52.475 53.1809 52.6703 52.9857L53.9986 51.6573L55.327 52.9856C55.5222 53.1809 55.8388 53.1809 56.0341 52.9856C56.2294 52.7904 56.2294 52.4738 56.0341 52.2785L54.7058 50.9502L55.9857 49.6703C56.1809 49.475 56.1809 49.1585 55.9857 48.9632Z" fill="#FFCF87"/>
<path fill-rule="evenodd" clip-rule="evenodd" d="M11.9857 19.9632C11.7904 19.7679 11.4738 19.7679 11.2785 19.9632L9.99864 21.2431L8.74256 19.987C8.5473 19.7917 8.23072 19.7917 8.03545 19.987C7.84019 20.1823 7.84019 20.4989 8.03545 20.6941L9.29154 21.9502L7.96316 23.2786C7.7679 23.4738 7.7679 23.7904 7.96316 23.9857C8.15842 24.1809 8.475 24.1809 8.67027 23.9857L9.99864 22.6573L11.327 23.9856C11.5222 24.1809 11.8388 24.1809 12.0341 23.9856C12.2294 23.7904 12.2294 23.4738 12.0341 23.2785L10.7058 21.9502L11.9857 20.6703C12.1809 20.475 12.1809 20.1585 11.9857 19.9632Z" fill="#FFCF87"/>
<path d="M39.7326 52.2699C37.7719 55.3874 33.2281 55.3874 31.2674 52.2699L13.9048 24.6619C11.8107 21.3321 14.2039 17 18.1373 17L52.8627 17C56.7961 17 59.1893 21.3321 57.0952 24.6619L39.7326 52.2699Z" fill="#F29F24"/>
<path fill-rule="evenodd" clip-rule="evenodd" d="M35.4999 23C33.6095 23 32.1169 24.6053 32.2544 26.4907L32.9968 36.6728C33.0925 37.9846 34.1846 39 35.4999 39C36.8151 39 37.9072 37.9846 38.0029 36.6728L38.7453 26.4907C38.8828 24.6053 37.3903 23 35.4999 23ZM35.5206 45.5958C36.9061 45.5958 38.0293 44.4726 38.0293 43.0871C38.0293 41.7015 36.9061 40.5784 35.5206 40.5784C34.1351 40.5784 33.0119 41.7015 33.0119 43.0871C33.0119 44.4726 34.1351 45.5958 35.5206 45.5958Z" fill="#FFE8C6"/>
</svg>
