<svg width="16" height="16" viewBox="0 0 16 16" fill="none" xmlns="http://www.w3.org/2000/svg">
<path d="M1.28071 3.31283C0.906591 2.9387 0.906592 2.33213 1.28071 1.958L1.95812 1.28059C2.33224 0.906469 2.93882 0.906469 3.31294 1.28059L14.7195 12.6872C15.0936 13.0613 15.0936 13.6679 14.7195 14.042L14.0421 14.7194C13.6679 15.0935 13.0614 15.0935 12.6872 14.7194L1.28071 3.31283Z" fill="#D4820A"/>
<path d="M12.6873 1.2806C13.0614 0.906474 13.668 0.906475 14.0421 1.2806L14.7195 1.95801C15.0937 2.33213 15.0937 2.93871 14.7195 3.31283L3.313 14.7194C2.93888 15.0935 2.33231 15.0935 1.95819 14.7194L1.28078 14.042C0.906656 13.6679 0.906656 13.0613 1.28078 12.6872L12.6873 1.2806Z" fill="#D4820A"/>
</svg>
