<svg width="72" height="72" viewBox="0 0 72 72" fill="none" xmlns="http://www.w3.org/2000/svg">
<g opacity="0.5">
<rect x="16" y="9" width="42" height="9" rx="4.5" fill="#FFDFDC"/>
<path d="M16 58.5C16 56.0147 18.0147 54 20.5 54H57.5C59.9853 54 62 56.0147 62 58.5C62 60.9853 59.9853 63 57.5 63H20.5C18.0147 63 16 60.9853 16 58.5Z" fill="#FFDFDC"/>
<path fill-rule="evenodd" clip-rule="evenodd" d="M20 35.9725C20.1642 35.9907 20.331 36 20.5 36H64.5C66.9853 36 69 33.9853 69 31.5C69 29.0147 66.9853 27 64.5 27H20.5C20.331 27 20.1642 27.0093 20 27.0275C22.25 27.2762 24 29.1837 24 31.5C24 33.8163 22.25 35.7238 20 35.9725Z" fill="#FFDFDC"/>
<path fill-rule="evenodd" clip-rule="evenodd" d="M6.5 36C4.01472 36 2 38.0147 2 40.5C2 42.9853 4.01472 45 6.5 45H50.5C48.0147 45 46 42.9853 46 40.5C46 38.0147 48.0147 36 50.5 36H6.5Z" fill="#FFDFDC"/>
<path fill-rule="evenodd" clip-rule="evenodd" d="M14.5 18C12.0147 18 10 20.0147 10 22.5C10 24.9853 12.0147 27 14.5 27H54.5C52.0147 27 50 24.9853 50 22.5C50 20.0147 52.0147 18 54.5 18H14.5Z" fill="#FFDFDC"/>
<path fill-rule="evenodd" clip-rule="evenodd" d="M19.5 54H47.5C49.9853 54 52 51.9853 52 49.5C52 47.0147 49.9853 45 47.5 45H19.5C21.9853 45 24 47.0147 24 49.5C24 51.9853 21.9853 54 19.5 54Z" fill="#FFDFDC"/>
</g>
<circle cx="17" cy="35" r="1.5" stroke="#FF928B"/>
<circle cx="29" cy="16" r="1.5" stroke="#FF928B"/>
<path fill-rule="evenodd" clip-rule="evenodd" d="M55 37C54.7239 37 54.5 37.2239 54.5 37.5V39.5H52.5C52.2239 39.5 52 39.7239 52 40C52 40.2761 52.2239 40.5 52.5 40.5H54.5V42.5C54.5 42.7761 54.7239 43 55 43C55.2761 43 55.5 42.7761 55.5 42.5V40.5H57.5C57.7761 40.5 58 40.2761 58 40C58 39.7239 57.7761 39.5 57.5 39.5H55.5V37.5C55.5 37.2239 55.2761 37 55 37Z" fill="#FF928B"/>
<path fill-rule="evenodd" clip-rule="evenodd" d="M14.9857 51.9632C14.7904 51.7679 14.4738 51.7679 14.2785 51.9632L12.9986 53.2431L11.7426 51.987C11.5473 51.7917 11.2307 51.7917 11.0355 51.987C10.8402 52.1823 10.8402 52.4989 11.0355 52.6941L12.2915 53.9502L10.9632 55.2786C10.7679 55.4738 10.7679 55.7904 10.9632 55.9857C11.1584 56.1809 11.475 56.1809 11.6703 55.9857L12.9986 54.6573L14.327 55.9856C14.5222 56.1809 14.8388 56.1809 15.0341 55.9856C15.2294 55.7904 15.2294 55.4738 15.0341 55.2785L13.7058 53.9502L14.9857 52.6703C15.1809 52.475 15.1809 52.1585 14.9857 51.9632Z" fill="#FF928B"/>
<path fill-rule="evenodd" clip-rule="evenodd" d="M49.9857 11.9632C49.7904 11.7679 49.4738 11.7679 49.2785 11.9632L47.9986 13.2431L46.7426 11.987C46.5473 11.7917 46.2307 11.7917 46.0355 11.987C45.8402 12.1823 45.8402 12.4989 46.0355 12.6941L47.2915 13.9502L45.9632 15.2786C45.7679 15.4738 45.7679 15.7904 45.9632 15.9857C46.1584 16.1809 46.475 16.1809 46.6703 15.9857L47.9986 14.6573L49.327 15.9856C49.5222 16.1809 49.8388 16.1809 50.0341 15.9856C50.2294 15.7904 50.2294 15.4738 50.0341 15.2785L48.7058 13.9502L49.9857 12.6703C50.1809 12.475 50.1809 12.1585 49.9857 11.9632Z" fill="#FF928B"/>
<path fill-rule="evenodd" clip-rule="evenodd" d="M18.7384 19.3241C16.7858 21.2768 16.7858 24.4426 18.7384 26.3952L28.3138 35.9706L19.0637 45.2207C17.1111 47.1733 17.1111 50.3392 19.0637 52.2918C21.0163 54.2444 24.1821 54.2444 26.1348 52.2918L35.3849 43.0417L43.8529 51.5097C45.8055 53.4624 48.9714 53.4624 50.924 51.5097C52.8766 49.5571 52.8766 46.3913 50.924 44.4387L42.4559 35.9706L51.7076 26.7189C53.6602 24.7663 53.6602 21.6005 51.7076 19.6479C49.755 17.6952 46.5892 17.6952 44.6366 19.6479L35.3849 28.8995L25.8095 19.3241C23.8568 17.3715 20.691 17.3715 18.7384 19.3241Z" fill="#F64F45"/>
</svg>
