<svg width="16" height="16" viewBox="0 0 16 16" fill="none" xmlns="http://www.w3.org/2000/svg">
<path d="M15 10.75V14.25C15 14.4583 14.9271 14.6354 14.7813 14.7813C14.6354 14.9271 14.4583 15 14.25 15H10.75C10.5417 15 10.3646 14.9271 10.2188 14.7813C10.0729 14.6354 10 14.4583 10 14.25C10 14.0417 10.0729 13.8646 10.2188 13.7188L11.3438 12.5938L8 9.25L4.65625 12.5938L5.78125 13.7188C5.92708 13.8646 6 14.0417 6 14.25C6 14.4583 5.92708 14.6354 5.78125 14.7813C5.63542 14.9271 5.45833 15 5.25 15H1.75C1.54167 15 1.36458 14.9271 1.21875 14.7813C1.07292 14.6354 1 14.4583 1 14.25V10.75C1 10.5417 1.07292 10.3646 1.21875 10.2188C1.36458 10.0729 1.54167 10 1.75 10C1.95833 10 2.13542 10.0729 2.28125 10.2188L3.40625 11.3438L6.78125 8L3.40625 4.65625L2.28125 5.78125C2.13542 5.92708 1.95833 6 1.75 6C1.54167 6 1.36458 5.92708 1.21875 5.78125C1.07292 5.63542 1 5.45833 1 5.25V1.75C1 1.54167 1.07292 1.36458 1.21875 1.21875C1.36458 1.07292 1.54167 1 1.75 1H5.25C5.45833 1 5.63542 1.07292 5.78125 1.21875C5.92708 1.36458 6 1.54167 6 1.75C6 1.95833 5.92708 2.13542 5.78125 2.28125L4.65625 3.40625L8 6.75L11.3438 3.40625L10.2188 2.28125C10.0729 2.13542 10 1.95833 10 1.75C10 1.54167 10.0729 1.36458 10.2188 1.21875C10.3646 1.07292 10.5417 1 10.75 1H14.25C14.4583 1 14.6354 1.07292 14.7813 1.21875C14.9271 1.36458 15 1.54167 15 1.75V5.25C15 5.45833 14.9271 5.63542 14.7813 5.78125C14.6354 5.92708 14.4583 6 14.25 6C14.0417 6 13.8646 5.92708 13.7188 5.78125L12.5938 4.65625L9.25 8L12.5938 11.3438L13.7188 10.2188C13.8646 10.0729 14.0417 10 14.25 10C14.4583 10 14.6354 10.0729 14.7813 10.2188C14.9271 10.3646 15 10.5417 15 10.75Z" fill="#707070"/>
</svg>
