<svg width="16" height="16" viewBox="0 0 16 16" fill="none" xmlns="http://www.w3.org/2000/svg">
<path d="M1.28059 3.31283C0.906469 2.9387 0.90647 2.33213 1.28059 1.958L1.958 1.28059C2.33212 0.906469 2.93869 0.906469 3.31282 1.28059L14.7193 12.6872C15.0935 13.0613 15.0935 13.6679 14.7193 14.042L14.0419 14.7194C13.6678 15.0935 13.0612 15.0935 12.6871 14.7194L1.28059 3.31283Z" fill="#707070"/>
<path d="M12.6872 1.2806C13.0613 0.906474 13.6679 0.906475 14.042 1.2806L14.7194 1.95801C15.0935 2.33213 15.0935 2.93871 14.7194 3.31283L3.31288 14.7194C2.93876 15.0935 2.33219 15.0935 1.95806 14.7194L1.28066 14.042C0.906534 13.6679 0.906534 13.0613 1.28066 12.6872L12.6872 1.2806Z" fill="#707070"/>
</svg>
