<svg width="16" height="16" viewBox="0 0 16 16" fill="none" xmlns="http://www.w3.org/2000/svg">
  <path d="M14 5.99998V2.40623C14 2.1354 13.9062 1.90623 13.7187 1.71873L12.2812 0.281235C12.0937 0.0937347 11.8646 -1.52588e-05 11.5937 -1.52588e-05H2.99997C2.72914 -1.52588e-05 2.48955 0.104151 2.28122 0.312485C2.09372 0.499985 1.99997 0.729151 1.99997 0.999985V5.99998C1.43747 5.99998 0.958303 6.1979 0.562469 6.59373C0.187469 6.96873 -3.05176e-05 7.43748 -3.05176e-05 7.99998V11.5C-3.05176e-05 11.6458 0.0416361 11.7708 0.124969 11.875C0.229136 11.9583 0.354136 12 0.499969 12H1.99997V15C1.99997 15.2708 2.09372 15.5 2.28122 15.6875C2.48955 15.8958 2.72914 16 2.99997 16H13C13.2708 16 13.5 15.8958 13.6875 15.6875C13.8958 15.5 14 15.2708 14 15V12H15.5C15.6458 12 15.7604 11.9583 15.8437 11.875C15.9479 11.7708 16 11.6458 16 11.5V7.99998C16 7.43748 15.8021 6.96873 15.4062 6.59373C15.0312 6.1979 14.5625 5.99998 14 5.99998ZM12 14H3.99997V11H12V14ZM12 6.99998H3.99997V1.99998H9.99997V3.49998C9.99997 3.64582 10.0416 3.77082 10.125 3.87498C10.2291 3.95832 10.3541 3.99998 10.5 3.99998H12V6.99998ZM13.5 9.24998C13.2916 9.24998 13.1146 9.17707 12.9687 9.03123C12.8229 8.8854 12.75 8.70832 12.75 8.49998C12.75 8.29165 12.8229 8.11457 12.9687 7.96873C13.1146 7.8229 13.2916 7.74998 13.5 7.74998C13.7083 7.74998 13.8854 7.8229 14.0312 7.96873C14.1771 8.11457 14.25 8.29165 14.25 8.49998C14.25 8.70832 14.1771 8.8854 14.0312 9.03123C13.8854 9.17707 13.7083 9.24998 13.5 9.24998Z" fill="#707070"/>
</svg>
