<svg width="72" height="72" viewBox="0 0 72 72" fill="none" xmlns="http://www.w3.org/2000/svg">
<rect x="1" y="9.00003" width="52" height="9" rx="4.5" fill="#F6F9FF"/>
<rect x="18.459" y="54" width="52.377" height="9" rx="4.5" fill="#F6F9FF"/>
<path fill-rule="evenodd" clip-rule="evenodd" d="M51.5727 27.0001C49.9029 27.6578 48.7212 29.2852 48.7212 31.1885C48.7212 33.6738 50.7359 35.6885 53.2212 35.6885H54.0174C53.5069 35.8896 52.9508 36.0001 52.3689 36.0001H14.8115C12.3262 36.0001 10.3115 33.9853 10.3115 31.5001C10.3115 29.0148 12.3262 27.0001 14.8115 27.0001H51.5727Z" fill="#F6F9FF"/>
<path fill-rule="evenodd" clip-rule="evenodd" d="M27.1885 44.9801C27.3288 44.9933 27.471 45 27.6148 45H54.6967C57.182 45 59.1967 42.9853 59.1967 40.5C59.1967 38.0147 57.182 36 54.6967 36H27.6147C27.471 36 27.3288 36.0067 27.1885 36.0199C29.4738 36.2347 31.2622 38.1585 31.2622 40.5C31.2622 42.8415 29.4738 44.7653 27.1885 44.9801Z" fill="#F6F9FF"/>
<path fill-rule="evenodd" clip-rule="evenodd" d="M22.729 18.0058C25.1079 18.125 27 20.0916 27 22.5C27 24.9082 25.1083 26.8745 22.7299 26.9943C22.8058 26.9981 22.8821 27 22.959 27H60.5163C63.0016 27 65.0163 24.9853 65.0163 22.5C65.0163 20.0147 63.0016 18 60.5163 18H22.959C22.8818 18 22.8052 18.0019 22.729 18.0058Z" fill="#F6F9FF"/>
<path fill-rule="evenodd" clip-rule="evenodd" d="M8.9917 45.0001C6.50642 45.0001 4.4917 47.0148 4.4917 49.5001C4.4917 51.9854 6.50642 54.0001 8.9917 54.0001H50.4092C48.7392 53.3425 47.5574 51.715 47.5574 49.8115C47.5574 47.3262 49.5721 45.3115 52.0574 45.3115H55.1809C54.6705 45.1105 54.1145 45.0001 53.5327 45.0001H8.9917Z" fill="#F6F9FF"/>
<path fill-rule="evenodd" clip-rule="evenodd" d="M35.0072 14C32.3794 14 30.2492 16.1302 30.2492 18.7579C30.2492 21.3857 32.3794 23.5159 35.0072 23.5159C37.6349 23.5159 39.7651 21.3857 39.7651 18.7579C39.7651 16.1302 37.6349 14 35.0072 14ZM31.8929 26.4571C29.7429 26.4571 28 28.2 28 30.3499C28 32.2332 29.3374 33.8042 31.1142 34.1649V49.8921C29.3374 50.2528 28 51.8237 28 53.7071C28 55.857 29.7429 57.5999 31.8929 57.5999H35.1142H36.4571H39.6786C41.8285 57.5999 43.5714 55.857 43.5714 53.7071C43.5714 51.8237 42.234 50.2527 40.4571 49.8921V30.4571C40.4571 30.4396 40.457 30.4222 40.4567 30.4049C40.457 30.3866 40.4571 30.3683 40.4571 30.3499C40.4571 28.2 38.7142 26.4571 36.5643 26.4571H36.4571H35.1142H31.8929Z" fill="#6B90EF"/>
<circle cx="19" cy="10" r="1.5" stroke="#9DB4F0"/>
<circle cx="51" cy="29" r="1.5" stroke="#9DB4F0"/>
<path fill-rule="evenodd" clip-rule="evenodd" d="M13.5 34C13.2239 34 13 34.2239 13 34.5V36.5H11C10.7239 36.5 10.5 36.7239 10.5 37C10.5 37.2761 10.7239 37.5 11 37.5H13V39.5C13 39.7761 13.2239 40 13.5 40C13.7761 40 14 39.7761 14 39.5V37.5H16C16.2761 37.5 16.5 37.2761 16.5 37C16.5 36.7239 16.2761 36.5 16 36.5H14V34.5C14 34.2239 13.7761 34 13.5 34Z" fill="#9DB4F0"/>
<path fill-rule="evenodd" clip-rule="evenodd" d="M59.8406 46.8666C59.6454 46.6713 59.3288 46.6713 59.1335 46.8666L57.8536 48.1465L56.5975 46.8904C56.4023 46.6952 56.0857 46.6952 55.8904 46.8904C55.6952 47.0857 55.6952 47.4023 55.8904 47.5975L57.1465 48.8536L55.8181 50.182C55.6229 50.3772 55.6229 50.6938 55.8181 50.8891C56.0134 51.0844 56.33 51.0844 56.5252 50.8891L57.8536 49.5607L59.182 50.8891C59.3772 51.0843 59.6938 51.0843 59.8891 50.8891C60.0843 50.6938 60.0843 50.3772 59.8891 50.1819L58.5607 48.8536L59.8406 47.5737C60.0359 47.3784 60.0359 47.0619 59.8406 46.8666Z" fill="#9DB4F0"/>
<path fill-rule="evenodd" clip-rule="evenodd" d="M51.9857 9.96319C51.7904 9.76793 51.4738 9.76793 51.2785 9.96319L49.9986 11.2431L48.7426 9.98701C48.5473 9.79174 48.2307 9.79174 48.0355 9.98701C47.8402 10.1823 47.8402 10.4989 48.0355 10.6941L49.2915 11.9502L47.9632 13.2786C47.7679 13.4738 47.7679 13.7904 47.9632 13.9857C48.1584 14.1809 48.475 14.1809 48.6703 13.9857L49.9986 12.6573L51.327 13.9856C51.5222 14.1809 51.8388 14.1809 52.0341 13.9856C52.2294 13.7904 52.2294 13.4738 52.0341 13.2785L50.7058 11.9502L51.9857 10.6703C52.1809 10.475 52.1809 10.1585 51.9857 9.96319Z" fill="#9DB4F0"/>
</svg>
