<svg width="72" height="72" viewBox="0 0 72 72" fill="none" xmlns="http://www.w3.org/2000/svg">
<g opacity="0.5">
<rect x="9" y="9.00003" width="55" height="9" rx="4.5" fill="#D0F5C7"/>
<rect x="7" y="54" width="43" height="9" rx="4.5" fill="#D0F5C7"/>
<path d="M10.3115 31.5001C10.3115 29.0148 12.3262 27.0001 14.8115 27.0001H60.5C62.9853 27.0001 65 29.0148 65 31.5001C65 33.9853 62.9853 36.0001 60.5 36.0001H14.8115C12.3262 36.0001 10.3115 33.9853 10.3115 31.5001Z" fill="#D0F5C7"/>
<path fill-rule="evenodd" clip-rule="evenodd" d="M6.5 36C4.01472 36 2 38.0147 2 40.5C2 42.9853 4.01472 45 6.5 45H52.5C52.8437 45 53.1784 44.9615 53.5 44.8885C51.496 44.4338 50 42.6416 50 40.5C50 38.3584 51.496 36.5662 53.5 36.1115C53.1784 36.0385 52.8437 36 52.5 36H6.5Z" fill="#D0F5C7"/>
<path fill-rule="evenodd" clip-rule="evenodd" d="M18.0002 22.5C18.0002 20.1375 16.1797 18.2003 13.865 18.0146C13.9854 18.0049 14.1072 18 14.2301 18H51.7874C51.7923 18 51.7971 18 51.8019 18H46.5C44.0147 18 42 20.0147 42 22.5C42 24.9805 44.0069 26.9922 46.4855 27H14.2301C14.1073 27 13.9856 26.9951 13.8653 26.9854C16.1798 26.7996 18.0002 24.8624 18.0002 22.5Z" fill="#D0F5C7"/>
<path fill-rule="evenodd" clip-rule="evenodd" d="M18 53.9725C18.1642 53.9907 18.331 54 18.5 54H63.041C65.5263 54 67.541 51.9853 67.541 49.5C67.541 47.0147 65.5263 45 63.041 45H18.5C18.331 45 18.1642 45.0093 18 45.0275C20.25 45.2762 22 47.1837 22 49.5C22 51.8163 20.25 53.7238 18 53.9725Z" fill="#D0F5C7"/>
</g>
<circle cx="13" cy="14" r="1.5" stroke="#8ADC76"/>
<circle cx="48" cy="48" r="1.5" stroke="#8ADC76"/>
<path fill-rule="evenodd" clip-rule="evenodd" d="M58 28C57.7239 28 57.5 28.2239 57.5 28.5V30.5H55.5C55.2239 30.5 55 30.7239 55 31C55 31.2761 55.2239 31.5 55.5 31.5H57.5V33.5C57.5 33.7761 57.7239 34 58 34C58.2761 34 58.5 33.7761 58.5 33.5V31.5H60.5C60.7761 31.5 61 31.2761 61 31C61 30.7239 60.7761 30.5 60.5 30.5H58.5V28.5C58.5 28.2239 58.2761 28 58 28Z" fill="#8ADC76"/>
<path fill-rule="evenodd" clip-rule="evenodd" d="M19.9857 48.9632C19.7904 48.7679 19.4738 48.7679 19.2785 48.9632L17.9986 50.2431L16.7426 48.987C16.5473 48.7917 16.2307 48.7917 16.0355 48.987C15.8402 49.1823 15.8402 49.4989 16.0355 49.6941L17.2915 50.9502L15.9632 52.2786C15.7679 52.4738 15.7679 52.7904 15.9632 52.9857C16.1584 53.1809 16.475 53.1809 16.6703 52.9857L17.9986 51.6573L19.327 52.9856C19.5222 53.1809 19.8388 53.1809 20.0341 52.9856C20.2294 52.7904 20.2294 52.4738 20.0341 52.2785L18.7058 50.9502L19.9857 49.6703C20.1809 49.475 20.1809 49.1585 19.9857 48.9632Z" fill="#8ADC76"/>
<path fill-rule="evenodd" clip-rule="evenodd" d="M31.9857 19.9632C31.7904 19.7679 31.4738 19.7679 31.2785 19.9632L29.9986 21.2431L28.7426 19.987C28.5473 19.7917 28.2307 19.7917 28.0355 19.987C27.8402 20.1823 27.8402 20.4989 28.0355 20.6941L29.2915 21.9502L27.9632 23.2786C27.7679 23.4738 27.7679 23.7904 27.9632 23.9857C28.1584 24.1809 28.475 24.1809 28.6703 23.9857L29.9986 22.6573L31.327 23.9856C31.5222 24.1809 31.8388 24.1809 32.0341 23.9856C32.2294 23.7904 32.2294 23.4738 32.0341 23.2785L30.7058 21.9502L31.9857 20.6703C32.1809 20.475 32.1809 20.1585 31.9857 19.9632Z" fill="#8ADC76"/>
<path fill-rule="evenodd" clip-rule="evenodd" d="M55.4646 18.5355C53.5119 16.5829 50.3461 16.5829 48.3935 18.5355L27.8389 39.0902L18.7767 30.0281C16.8241 28.0754 13.6583 28.0754 11.7057 30.0281C9.75306 31.9807 9.75306 35.1465 11.7057 37.0991L24.1393 49.5328C25.3844 50.7779 27.1227 51.229 28.7253 50.8863C29.779 50.748 30.7971 50.2741 31.6066 49.4646L55.4646 25.6066C57.4172 23.654 57.4172 20.4881 55.4646 18.5355Z" fill="#4DC033"/>
</svg>
