<svg width="16" height="16" viewBox="0 0 16 16" fill="none" xmlns="http://www.w3.org/2000/svg">
<path fill-rule="evenodd" clip-rule="evenodd" d="M1.58579 1.58579C0.804738 2.36683 0.804738 3.63316 1.58579 4.41421L5.32119 8.14962L1.71346 11.7573C0.932409 12.5384 0.932409 13.8047 1.71346 14.5858C2.49451 15.3668 3.76084 15.3668 4.54188 14.5858L8.14962 10.978L11.3991 14.2276C12.1802 15.0086 13.4465 15.0086 14.2276 14.2276C15.0086 13.4465 15.0086 12.1802 14.2276 11.3991L10.978 8.14962L14.5352 4.59241C15.3163 3.81136 15.3163 2.54503 14.5352 1.76398C13.7542 0.982934 12.4879 0.982933 11.7068 1.76398L8.14962 5.32119L4.41421 1.58579C3.63316 0.804738 2.36684 0.804738 1.58579 1.58579Z" fill="#CC3E35"/>
</svg>
