<svg width="30" height="30" viewBox="0 0 30 30" fill="none" xmlns="http://www.w3.org/2000/svg">
<g id="icon/idea" clip-path="url(#clip0_2705_979)">
<path id="XMLID_26526_" d="M15.3942 4.20862C10.98 4.20862 7.38857 7.80007 7.38857 12.2144C7.38857 13.2429 7.44852 14.1515 7.77424 15.4715C8.34852 17.8029 9.75423 21.0086 10.2342 22.0543C10.0199 22.3458 9.89999 22.6886 9.89999 23.0486C9.89142 23.5029 10.0714 23.9229 10.38 24.2486C10.08 24.5658 9.90856 24.9772 9.89999 25.4143C9.89142 25.9286 10.1143 26.3914 10.4914 26.7343C10.2171 27.0429 10.0628 27.4372 10.0628 27.8572C10.0543 28.8601 10.9285 29.6829 12.0085 29.7L19.2342 29.7943C19.2428 29.7943 19.2514 29.7943 19.26 29.7943C19.8 29.7943 20.3142 29.5886 20.6828 29.2286C21.0257 28.8943 21.2142 28.4572 21.2142 28.0029C21.2228 27.4886 21 27.0257 20.6229 26.6829C20.8971 26.3743 21.0514 25.98 21.0514 25.56C21.06 25.1057 20.8799 24.6858 20.5714 24.3601C20.8714 24.0429 21.0429 23.6315 21.0514 23.1944C21.06 22.7401 20.88 22.3286 20.5885 22.0115C21.0857 20.9143 22.4571 17.7772 23.0228 15.4715C23.34 14.1515 23.4086 13.2429 23.4086 12.2144C23.4086 7.80007 19.8171 4.20862 15.3942 4.20862ZM19.8942 28.4229C19.7314 28.5858 19.4914 28.68 19.2342 28.6715L12.0085 28.5772C11.5371 28.5686 11.16 28.2515 11.16 27.8657C11.16 27.5657 11.4 27.3086 11.7428 27.2144C12 27.1458 12.1714 26.9143 12.1543 26.6486C12.1457 26.3829 11.9485 26.1686 11.6914 26.1258C11.2885 26.0572 10.9971 25.7658 11.0057 25.4315C11.0057 25.1486 11.2286 24.8915 11.5543 24.7886C11.7857 24.7201 11.9485 24.4972 11.9485 24.2572C11.9485 24.0086 11.7943 23.7943 11.5628 23.7258C11.2286 23.6229 11.0057 23.3572 11.0143 23.0658C11.0143 22.9286 11.0657 22.8172 11.1257 22.7315H19.7314C19.86 22.86 19.9371 23.0143 19.9371 23.1858C19.9371 23.4686 19.7143 23.7258 19.3886 23.8286C19.1571 23.8972 18.9943 24.1115 18.9943 24.3601C18.9943 24.6001 19.1486 24.8229 19.38 24.8915C19.7143 24.9943 19.9371 25.2601 19.9285 25.5515C19.9285 25.8515 19.6885 26.1086 19.3457 26.2029C19.0885 26.2715 18.9171 26.5029 18.9343 26.7686C18.9428 27.0343 19.1399 27.2486 19.3971 27.2915C19.7914 27.36 20.0914 27.66 20.0828 27.9858C20.0914 28.1915 19.9885 28.3372 19.8942 28.4229ZM21.9343 15.2058C21.3857 17.4258 19.9971 20.5972 19.5428 21.6086H11.2457C10.7914 20.5972 9.40282 17.4344 8.85425 15.2144C8.56282 13.9972 8.50284 13.1657 8.50284 12.2229C8.50284 8.42574 11.5971 5.33147 15.3942 5.33147C19.1914 5.33147 22.2857 8.42574 22.2857 12.2229C22.2857 13.1572 22.2257 13.9886 21.9343 15.2058Z" fill="#096BDE"/>
<path id="XMLID_26525_" d="M26.4 3.57442L22.9971 5.44298C22.86 5.52013 22.8086 5.70015 22.8857 5.83729C22.92 5.88872 22.9629 5.93153 23.0143 5.95725C23.1 6.00011 23.1943 6.0001 23.28 5.94867L26.6828 4.0801C26.82 4.00296 26.8714 3.82299 26.7943 3.68585C26.7171 3.54871 26.5457 3.49728 26.4 3.57442Z" fill="#096BDE"/>
<path id="XMLID_26524_" d="M21.3514 4.6114C21.5228 4.65425 21.7028 4.55143 21.7542 4.38L23.2714 -0.411449C23.3314 -0.591449 23.2285 -0.780021 23.0485 -0.840021C22.8685 -0.900021 22.68 -0.797155 22.62 -0.617155L21.1029 4.1743C21.0429 4.3543 21.1457 4.54287 21.3257 4.60287C21.3342 4.60287 21.3428 4.60282 21.3514 4.6114Z" fill="#096BDE"/>
<path id="XMLID_26523_" d="M14.3142 6.80566C13.0628 6.83138 10.6371 7.6114 10.4571 10.3628C10.4314 10.7314 10.7143 11.0486 11.0829 11.0743C11.4514 11.1 11.7685 10.8171 11.7942 10.4485C11.8028 10.2685 11.8286 10.1057 11.8714 9.93426C12.1543 8.82854 13.0457 8.39998 13.7486 8.22855C14.0743 8.15141 14.3229 8.14286 14.3486 8.14286C14.7171 8.13429 15.0085 7.82567 15 7.4571C14.9914 7.0971 14.6914 6.80566 14.3142 6.80566Z" fill="#096BDE"/>
</g>
<defs>
<clipPath id="clip0_2705_979">
<rect width="30" height="30" fill="white"/>
</clipPath>
</defs>
</svg>
