<svg width="30" height="30" viewBox="0 0 30 30" fill="none" xmlns="http://www.w3.org/2000/svg">
<rect width="30" height="30" rx="8" fill="#3BC46A"/>
<path d="M14.1667 20.4167C14.1667 20.8769 14.5398 21.25 15 21.25C15.4602 21.25 15.8333 20.8769 15.8333 20.4167V15.8333H20.4167C20.8769 15.8333 21.25 15.4602 21.25 15C21.25 14.5398 20.8769 14.1667 20.4167 14.1667H15.8333V9.58333C15.8333 9.1231 15.4602 8.75 15 8.75C14.5398 8.75 14.1667 9.1231 14.1667 9.58333V14.1667H9.58333C9.1231 14.1667 8.75 14.5398 8.75 15C8.75 15.4602 9.1231 15.8333 9.58333 15.8333H14.1667V20.4167Z" fill="white"/>
</svg>
