<svg width="30" height="30" viewBox="0 0 30 30" fill="none" xmlns="http://www.w3.org/2000/svg">
<rect width="30" height="30" rx="8" fill="#E24B4B"/>
<path d="M13.3334 13.125C13.7936 13.125 14.1667 13.4981 14.1667 13.9583V18.9583C14.1667 19.4185 13.7936 19.7916 13.3334 19.7916C12.8731 19.7916 12.5 19.4185 12.5 18.9583V13.9583C12.5 13.4981 12.8731 13.125 13.3334 13.125Z" fill="white"/>
<path d="M17.5 13.9583C17.5 13.4981 17.1269 13.125 16.6667 13.125C16.2064 13.125 15.8334 13.4981 15.8334 13.9583V18.9583C15.8334 19.4185 16.2064 19.7916 16.6667 19.7916C17.1269 19.7916 17.5 19.4185 17.5 18.9583V13.9583Z" fill="white"/>
<path fill-rule="evenodd" clip-rule="evenodd" d="M20 9.99996V9.16663C20 7.78591 18.8807 6.66663 17.5 6.66663H12.5C11.1193 6.66663 10 7.78591 10 9.16663V9.99996H8.75002C8.28978 9.99996 7.91669 10.3731 7.91669 10.8333C7.91669 11.2935 8.28978 11.6666 8.75002 11.6666H9.16669V20.8333C9.16669 22.214 10.286 23.3333 11.6667 23.3333H18.3334C19.7141 23.3333 20.8334 22.214 20.8334 20.8333V11.6666H21.25C21.7103 11.6666 22.0834 11.2935 22.0834 10.8333C22.0834 10.3731 21.7103 9.99996 21.25 9.99996H20ZM17.5 8.33329H12.5C12.0398 8.33329 11.6667 8.70639 11.6667 9.16663V9.99996H18.3334V9.16663C18.3334 8.70639 17.9603 8.33329 17.5 8.33329ZM19.1667 11.6666H10.8334V20.8333C10.8334 21.2935 11.2064 21.6666 11.6667 21.6666H18.3334C18.7936 21.6666 19.1667 21.2935 19.1667 20.8333V11.6666Z" fill="white"/>
</svg>
