<svg width="20" height="20" viewBox="0 0 20 20" fill="none" xmlns="http://www.w3.org/2000/svg">
<g id="task check">
<g id="icon">
<path d="M13.5305 8.56091C13.8651 8.87692 13.8802 9.40434 13.5641 9.73894L9.75478 13.7724C9.60414 13.9319 9.35562 13.9473 9.18648 13.8075L6.96929 11.9759C6.61447 11.6828 6.56445 11.1575 6.85757 10.8027C7.1507 10.4479 7.67596 10.3978 8.03078 10.691L9.34621 11.7777L12.3525 8.59456C12.6685 8.25997 13.1959 8.2449 13.5305 8.56091Z" fill="#585858"/>
<path fill-rule="evenodd" clip-rule="evenodd" d="M8.33334 1.66675C7.41287 1.66675 6.66668 2.41294 6.66668 3.33341L5.83334 3.33341C4.45263 3.33341 3.33334 4.4527 3.33334 5.83342V15.8334C3.33334 17.2141 4.45263 18.3334 5.83334 18.3334H14.1667C15.5474 18.3334 16.6667 17.2141 16.6667 15.8334V5.83342C16.6667 4.4527 15.5474 3.33341 14.1667 3.33341H13.3333C13.3333 2.41294 12.5872 1.66675 11.6667 1.66675H8.33334ZM11.6667 3.33341H8.33334V5.00008H11.6667V3.33341ZM6.66668 5.00008H5.83334C5.37311 5.00008 5.00001 5.37318 5.00001 5.83342V15.8334C5.00001 16.2937 5.37311 16.6667 5.83334 16.6667H14.1667C14.6269 16.6667 15 16.2937 15 15.8334V5.83342C15 5.37318 14.6269 5.00008 14.1667 5.00008H13.3333C13.3333 5.92056 12.5872 6.66675 11.6667 6.66675H8.33334C7.41287 6.66675 6.66668 5.92056 6.66668 5.00008Z" fill="#585858"/>
</g>
</g>
</svg>
