<svg width="20" height="20" viewBox="0 0 20 20" fill="none" xmlns="http://www.w3.org/2000/svg">
<path d="M8.33335 8.12508C8.79359 8.12508 9.16669 8.49818 9.16669 8.95842V13.9584C9.16669 14.4187 8.79359 14.7917 8.33335 14.7917C7.87312 14.7917 7.50002 14.4187 7.50002 13.9584V8.95842C7.50002 8.49818 7.87312 8.12508 8.33335 8.12508Z" fill="white"/>
<path d="M12.5 8.95842C12.5 8.49818 12.1269 8.12508 11.6667 8.12508C11.2064 8.12508 10.8334 8.49818 10.8334 8.95842V13.9584C10.8334 14.4187 11.2064 14.7917 11.6667 14.7917C12.1269 14.7917 12.5 14.4187 12.5 13.9584V8.95842Z" fill="white"/>
<path fill-rule="evenodd" clip-rule="evenodd" d="M15 5.00008V4.16675C15 2.78604 13.8807 1.66675 12.5 1.66675H7.50002C6.11931 1.66675 5.00002 2.78604 5.00002 4.16675V5.00008H3.75002C3.28978 5.00008 2.91669 5.37318 2.91669 5.83342C2.91669 6.29365 3.28978 6.66675 3.75002 6.66675H4.16669V15.8334C4.16669 17.2141 5.28598 18.3334 6.66669 18.3334H13.3334C14.7141 18.3334 15.8334 17.2141 15.8334 15.8334V6.66675H16.25C16.7103 6.66675 17.0834 6.29365 17.0834 5.83342C17.0834 5.37318 16.7103 5.00008 16.25 5.00008H15ZM12.5 3.33341H7.50002C7.03978 3.33341 6.66669 3.70651 6.66669 4.16675V5.00008H13.3334V4.16675C13.3334 3.70651 12.9603 3.33341 12.5 3.33341ZM14.1667 6.66675H5.83335V15.8334C5.83335 16.2937 6.20645 16.6667 6.66669 16.6667H13.3334C13.7936 16.6667 14.1667 16.2937 14.1667 15.8334V6.66675Z" fill="white"/>
</svg>
