<svg width="21" height="21" viewBox="0 0 21 21" fill="none" xmlns="http://www.w3.org/2000/svg">
<g id="user">
<g id="icon">
<path fill-rule="evenodd" clip-rule="evenodd" d="M14.4375 5.6875C14.4375 7.86212 12.6746 9.625 10.5 9.625C8.32538 9.625 6.5625 7.86212 6.5625 5.6875C6.5625 3.51288 8.32538 1.75 10.5 1.75C12.6746 1.75 14.4375 3.51288 14.4375 5.6875ZM12.6875 5.6875C12.6875 6.89562 11.7081 7.875 10.5 7.875C9.29188 7.875 8.3125 6.89562 8.3125 5.6875C8.3125 4.47938 9.29188 3.5 10.5 3.5C11.7081 3.5 12.6875 4.47938 12.6875 5.6875Z" fill="#17163A"/>
<path fill-rule="evenodd" clip-rule="evenodd" d="M2.625 16.5577C2.625 13.2121 5.33712 10.5 8.68269 10.5H12.3173C15.6629 10.5 18.375 13.2121 18.375 16.5577C18.375 17.5614 17.5614 18.375 16.5577 18.375H4.44231C3.43864 18.375 2.625 17.5614 2.625 16.5577ZM4.375 16.5577C4.375 14.1786 6.30362 12.25 8.68269 12.25H12.3173C14.6964 12.25 16.625 14.1786 16.625 16.5577C16.625 16.5949 16.5949 16.625 16.5577 16.625H4.44231C4.40513 16.625 4.375 16.5949 4.375 16.5577Z" fill="#17163A"/>
</g>
</g>
</svg>
