<svg width="32" height="30" viewBox="0 0 32 30" fill="none" xmlns="http://www.w3.org/2000/svg">
<g id="icon/write">
<path id="XMLID_26749_" d="M30.2654 28.4478C26.4701 28.4478 22.6842 28.4478 18.8888 28.4478C20.1193 27.189 21.3496 25.9207 22.5801 24.6619C22.6463 24.6619 22.7031 24.643 22.7599 24.624C22.7694 24.624 22.7789 24.6146 22.7883 24.6146C22.7978 24.6146 22.7978 24.6146 22.7978 24.6051C22.9208 24.5578 23.0249 24.4632 23.0912 24.3117C25.5236 18.4815 27.9466 12.6511 30.379 6.81137C30.7197 5.98794 31.07 5.15505 31.4107 4.33161C31.4391 4.27483 31.4486 4.22752 31.4581 4.17073C31.9313 2.60905 31.3066 0.886488 29.7165 0.233421C28.1454 -0.419647 26.2713 0.346968 25.6183 1.91812C23.1858 7.7484 20.7534 13.5787 18.3304 19.4184C17.9897 20.2419 17.6395 21.0747 17.2988 21.8982C17.2136 22.1064 17.2609 22.343 17.4123 22.5039C17.4029 22.9772 17.3934 23.4409 17.3934 23.9142C17.3934 24.1413 17.3839 24.359 17.3839 24.5862C17.365 25.8734 17.3366 27.17 17.3177 28.4572C11.8754 28.4572 6.43321 28.4572 0.990981 28.4572C0.186478 28.4572 0.186478 30 0.990981 30C10.7491 30 20.5073 30 30.2654 30C31.0699 29.9905 31.0699 28.4478 30.2654 28.4478ZM30.4926 3.33783C29.319 2.84566 28.1359 2.3535 26.9622 1.86133C28.098 0.365899 30.6535 1.44488 30.4926 3.33783ZM25.6372 4.84275C25.9117 4.18968 26.1767 3.53661 26.4512 2.88354C27.6816 3.39463 28.912 3.90574 30.1424 4.4263C27.7857 10.0862 25.429 15.7461 23.0723 21.3966C22.7978 22.0496 22.5328 22.7027 22.2583 23.3558C21.0279 22.8447 19.7974 22.3336 18.567 21.813C20.9237 16.1531 23.2805 10.4932 25.6372 4.84275ZM18.5292 23.2706C19.4378 23.6492 20.3464 24.0278 21.2645 24.4064C20.7439 24.9459 20.2139 25.4759 19.6933 26.0154C19.2958 25.845 18.8983 25.6841 18.4913 25.5137C18.5008 24.766 18.5197 24.0183 18.5292 23.2706Z" fill="#333333"/>
</g>
</svg>
